# xmcd
#
# Track frame offsets:
#	150
#	22359
#	36337
#	46971
#	80454
#	101880
#	115736
#	130052
#	151221
#	161491
#	189869
#	217136
#	247223
#	280639
#
# Disc length: 3869
#
# Revision: 2
# Processed by: cddbd v1.5.1PL0 Copyright (c) Steve Scherf et al.
# Submitted via: CDex 1.40Beta3
# Normalized: r1:TDELIM( - )
#
DISCID=c40f1b0e
DTITLE=Various Artist - Guitar Heroes CD1
DYEAR=2000
DGENRE=Blues
TTITLE0=Santana - Soul Sacrifice
TTITLE1=Jimi Hendrix - Purple Haze (live)
TTITLE2=B.B. King - Recession Blues
TTITLE3=Buddy Guy - Stone Crazy
TTITLE4=Johnny Winter - Raised On Rock
TTITLE5=Lex Vandyke - Oh Well
TTITLE6=Hound Dog Taylor - Watch Out
TTITLE7=Mike Bloomfield - Cherry Red
TTITLE8=Elmore James - Talk To Me Baby (I Can't Hold Out)
TTITLE9=B.B. King - Paying The Cost To Be The Boss
TTITLE10=Lex Vandyke - Layla
TTITLE11=Little Milton - I Can't Quit You Baby
TTITLE12=Pat Metheny - Move To The Groove
TTITLE13=Eric Clapton - Tribute To Elmore
EXTD=YEAR: 2000 ID3G:   0
EXTT0=
EXTT1=
EXTT2=
EXTT3=
EXTT4=
EXTT5=
EXTT6=
EXTT7=
EXTT8=
EXTT9=
EXTT10=
EXTT11=
EXTT12=
EXTT13=
PLAYORDER=
